<svg xmlns="http://www.w3.org/2000/svg" width="120" height="120" viewBox="0 0 120 120"><g transform="translate(60,62)"><path d="M0 -8 C-22 -8 -36 6 -36 30 C-36 56 -18 74 0 74 C18 74 36 56 36 30 C36 6 22 -8 0 -8 Z" fill="#e23b3b" stroke="#3a2a23" stroke-width="4"/><path d="M-4 0 C-14 0 -20 8 -20 18 C-20 6 -12 0 -4 0 Z" fill="#ff8c7a"/><rect x="-3" y="-26" width="6" height="20" rx="3" fill="#7a4a22"/><path d="M3 -18 C18 -26 30 -20 27 -8 C16 -4 7 -8 3 -18 Z" fill="#3aa564" stroke="#2c8650" stroke-width="2"/></g></svg>
