<svg xmlns="http://www.w3.org/2000/svg" width="120" height="120" viewBox="0 0 120 120"><path d="M14 78 L14 60 C14 56 17 54 20 54 L34 54 L46 38 C48 35 51 34 54 34 L82 34 C86 34 89 36 91 40 L100 56 L104 58 C107 59 108 62 108 65 L108 78 Z" fill="#1fb5c4" stroke="#3a2a23" stroke-width="4" stroke-linejoin="round"/><path d="M50 40 L78 40 C80 40 82 41 83 44 L88 54 L50 54 Z" fill="#cdeff3"/><circle cx="38" cy="80" r="13" fill="#3a2a23"/><circle cx="38" cy="80" r="5" fill="#cdeff3"/><circle cx="86" cy="80" r="13" fill="#3a2a23"/><circle cx="86" cy="80" r="5" fill="#cdeff3"/><circle cx="100" cy="64" r="3" fill="#ffd84d"/></svg>
