<svg xmlns="http://www.w3.org/2000/svg" width="600" height="120" viewBox="0 0 600 120"><g transform="translate(20,20) scale(0.66)"><path d="M60 10 L72 44 L108 44 L78 66 L90 100 L60 78 L30 100 L42 66 L12 44 L48 44 Z" fill="#ffc247" stroke="#3a2a23" stroke-width="4" stroke-linejoin="round"/></g><g transform="translate(140,20) scale(0.66)"><path d="M60 102 C26 74 18 48 34 36 C48 26 60 40 60 48 C60 40 72 26 86 36 C102 48 94 74 60 102 Z" fill="#ff7a59" stroke="#3a2a23" stroke-width="4" stroke-linejoin="round"/></g><g transform="translate(260,20) scale(0.66)"><path d="M60 10 L72 44 L108 44 L78 66 L90 100 L60 78 L30 100 L42 66 L12 44 L48 44 Z" fill="#ffc247" stroke="#3a2a23" stroke-width="4" stroke-linejoin="round"/></g><g transform="translate(380,20) scale(0.66)"><path d="M60 102 C26 74 18 48 34 36 C48 26 60 40 60 48 C60 40 72 26 86 36 C102 48 94 74 60 102 Z" fill="#ff7a59" stroke="#3a2a23" stroke-width="4" stroke-linejoin="round"/></g><rect x="498" y="18" width="84" height="84" rx="16" fill="#fdf6ee" stroke="#3a2a23" stroke-width="4" stroke-dasharray="8 8"/><text x="540" y="60" font-family="sans-serif" font-size="56" font-weight="bold" fill="#3a2a23" text-anchor="middle" dominant-baseline="central">?</text></svg>
